<svg width="24" height="24" viewBox="0 0 24 24" fill="none" xmlns="http://www.w3.org/2000/svg">
<path fill-rule="evenodd" clip-rule="evenodd" d="M20.75 4.18067C23.2498 6.6055 23.4072 10.4526 21.2165 13.0569C21.1805 13.1234 21.1344 13.1846 21.0791 13.2382L12.5222 21.5384C12.2312 21.8206 11.7687 21.8206 11.4778 21.5384L2.92089 13.2382C2.86561 13.1846 2.81947 13.1234 2.7835 13.0569C0.592758 10.4526 0.750154 6.6055 3.25 4.18067C5.63668 1.86562 9.34702 1.63349 12 3.47931C14.653 1.63349 18.3633 1.86562 20.75 4.18067Z" fill="#EE4D4D"/>
<path fill-rule="evenodd" clip-rule="evenodd" d="M15.25 6C15.25 5.58579 15.5858 5.25 16 5.25C18.0711 5.25 19.75 6.92893 19.75 9C19.75 9.41421 19.4142 9.75 19 9.75C18.5858 9.75 18.25 9.41421 18.25 9C18.25 7.75736 17.2426 6.75 16 6.75C15.5858 6.75 15.25 6.41421 15.25 6Z" fill="#F9F9F9"/>
</svg>
