<svg width="24" height="24" viewBox="0 0 24 24" fill="none" xmlns="http://www.w3.org/2000/svg">
<path fill-rule="evenodd" clip-rule="evenodd" d="M1.25 5C1.25 3.48122 2.48122 2.25 4 2.25H5C5.41421 2.25 5.75 2.58579 5.75 3V9C5.75 9.41421 5.41421 9.75 5 9.75H4C2.48122 9.75 1.25 8.51878 1.25 7V5ZM4 3.75C3.30964 3.75 2.75 4.30964 2.75 5V7C2.75 7.69036 3.30964 8.25 4 8.25H4.25V3.75H4Z" fill="#FF884D"/>
<path fill-rule="evenodd" clip-rule="evenodd" d="M22.75 5C22.75 3.48122 21.5188 2.25 20 2.25H19C18.5858 2.25 18.25 2.58579 18.25 3V9C18.25 9.41421 18.5858 9.75 19 9.75H20C21.5188 9.75 22.75 8.51878 22.75 7V5ZM20 3.75C20.6904 3.75 21.25 4.30964 21.25 5V7C21.25 7.69036 20.6904 8.25 20 8.25H19.75V3.75H20Z" fill="#FF884D"/>
<path fill-rule="evenodd" clip-rule="evenodd" d="M12 15.25C12.4142 15.25 12.75 15.5858 12.75 16V19C12.75 19.4142 12.4142 19.75 12 19.75C11.5858 19.75 11.25 19.4142 11.25 19V16C11.25 15.5858 11.5858 15.25 12 15.25Z" fill="#FF884D"/>
<path d="M5 1.25C4.58579 1.25 4.25 1.58579 4.25 2V12C4.25 14.6234 6.37665 16.75 9 16.75H15C17.6234 16.75 19.75 14.6234 19.75 12V2C19.75 1.58579 19.4142 1.25 19 1.25H5Z" fill="#FFC44D"/>
<path d="M12.6183 5.57601C12.4785 5.37197 12.247 5.25 11.9997 5.25C11.7523 5.25 11.5208 5.37197 11.381 5.57601L10.4738 6.89979L8.93443 7.35355C8.69716 7.4235 8.50964 7.60593 8.4332 7.84119C8.35676 8.07644 8.40124 8.33426 8.55208 8.5303L9.53071 9.80221L9.48659 11.4064C9.47979 11.6537 9.59535 11.8884 9.79547 12.0338C9.99559 12.1792 10.2545 12.2166 10.4876 12.1337L11.9997 11.596L13.5117 12.1337C13.7448 12.2166 14.0037 12.1792 14.2039 12.0338C14.404 11.8884 14.5195 11.6537 14.5127 11.4064L14.4686 9.80221L15.4472 8.5303C15.5981 8.33426 15.6426 8.07644 15.5661 7.84119C15.4897 7.60593 15.3022 7.4235 15.0649 7.35355L13.5256 6.89979L12.6183 5.57601Z" fill="#FF884D"/>
<path d="M7 18.25C6.58579 18.25 6.25 18.5858 6.25 19V22C6.25 22.4142 6.58579 22.75 7 22.75H17C17.4142 22.75 17.75 22.4142 17.75 22V19C17.75 18.5858 17.4142 18.25 17 18.25H7Z" fill="#FFC44D"/>
</svg>
