<svg width="24" height="24" viewBox="0 0 24 24" fill="none" xmlns="http://www.w3.org/2000/svg">
<path fill-rule="evenodd" clip-rule="evenodd" d="M9.3291 5.66459C9.51434 5.2941 9.96485 5.14393 10.3353 5.32918L11.9999 6.16147L13.6645 5.32918C14.035 5.14393 14.4855 5.2941 14.6707 5.66459C14.856 6.03507 14.7058 6.48557 14.3353 6.67082L12.7499 7.46352V9.00001C12.7499 9.41423 12.4141 9.75001 11.9999 9.75001C11.5857 9.75001 11.2499 9.41423 11.2499 9.00001V7.46352L9.66451 6.67082C9.29403 6.48557 9.14386 6.03507 9.3291 5.66459Z" fill="#A2D471"/>
<path d="M7 8.25C6.80109 8.25 6.61032 8.32902 6.46967 8.46967L4.46967 10.4697C4.32902 10.6103 4.25 10.8011 4.25 11V19.5C4.25 21.2949 5.70507 22.75 7.5 22.75C8.37384 22.75 9.16647 22.4051 9.75 21.845C10.3335 22.4051 11.1262 22.75 12 22.75C12.8738 22.75 13.6665 22.4051 14.25 21.845C14.8335 22.4051 15.6262 22.75 16.5 22.75C18.2949 22.75 19.75 21.2949 19.75 19.5V11C19.75 10.8011 19.671 10.6103 19.5303 10.4697L17.5303 8.46967C17.3897 8.32902 17.1989 8.25 17 8.25H7Z" fill="#4DC4FF"/>
<path d="M7.5 1.25C9.57107 1.25 11.25 2.92893 11.25 5V6C11.25 6.41421 10.9142 6.75 10.5 6.75H7.5C5.42893 6.75 3.75 5.07107 3.75 3V2C3.75 1.58579 4.08579 1.25 4.5 1.25H7.5Z" fill="#8BC94D"/>
<path d="M16.5 1.25C14.4289 1.25 12.75 2.92893 12.75 5V6C12.75 6.41421 13.0858 6.75 13.5 6.75H16.5C18.5711 6.75 20.25 5.07107 20.25 3V2C20.25 1.58579 19.9142 1.25 19.5 1.25H16.5Z" fill="#8BC94D"/>
<path fill-rule="evenodd" clip-rule="evenodd" d="M6.25 13C6.25 12.5858 6.58579 12.25 7 12.25H17C17.4142 12.25 17.75 12.5858 17.75 13C17.75 13.4142 17.4142 13.75 17 13.75H7C6.58579 13.75 6.25 13.4142 6.25 13Z" fill="#ECEFF1"/>
<path fill-rule="evenodd" clip-rule="evenodd" d="M6.25 16C6.25 15.5858 6.58579 15.25 7 15.25H17C17.4142 15.25 17.75 15.5858 17.75 16C17.75 16.4142 17.4142 16.75 17 16.75H7C6.58579 16.75 6.25 16.4142 6.25 16Z" fill="#ECEFF1"/>
</svg>
