<svg width="24" height="24" viewBox="0 0 24 24" fill="none" xmlns="http://www.w3.org/2000/svg">
<path d="M12 1.25C6.06294 1.25 1.25 6.06294 1.25 12C1.25 17.9371 6.06294 22.75 12 22.75C17.9371 22.75 22.75 17.9371 22.75 12C22.75 6.06294 17.9371 1.25 12 1.25Z" fill="#FFC44D"/>
<path d="M12.6252 5.58535C12.4863 5.37591 12.2516 5.25 12.0003 5.25C11.7489 5.25 11.5143 5.37591 11.3753 5.58535L9.44908 8.48856L6.09272 9.4234C5.85059 9.49084 5.65833 9.67509 5.58066 9.91413C5.50299 10.1532 5.55023 10.4152 5.70648 10.6121L7.87235 13.3412L7.72426 16.8222C7.71358 17.0733 7.8294 17.3131 8.03274 17.4609C8.23609 17.6086 8.49992 17.6447 8.73545 17.5569L12.0003 16.3404L15.2651 17.5569C15.5007 17.6447 15.7645 17.6086 15.9678 17.4609C16.1712 17.3131 16.287 17.0733 16.2763 16.8222L16.1282 13.3412L18.2941 10.6121C18.4504 10.4152 18.4976 10.1532 18.4199 9.91413C18.3423 9.67509 18.15 9.49084 17.9079 9.4234L14.5515 8.48856L12.6252 5.58535Z" fill="#FF884D"/>
</svg>
