<svg width="24" height="24" viewBox="0 0 24 24" fill="none" xmlns="http://www.w3.org/2000/svg">
<path fill-rule="evenodd" clip-rule="evenodd" d="M2.25 5C2.25 4.58579 2.58579 4.25 3 4.25H5.5C5.84415 4.25 6.14414 4.48422 6.22761 4.8181L6.72761 6.8181C6.82807 7.21994 6.58375 7.62715 6.1819 7.72761C5.78006 7.82807 5.37285 7.58375 5.27239 7.1819L4.91442 5.75H3C2.58579 5.75 2.25 5.41421 2.25 5Z" fill="#5D6874"/>
<path fill-rule="evenodd" clip-rule="evenodd" d="M6.00001 6.25C5.767 6.25 5.54722 6.3583 5.40527 6.54307C5.26331 6.72785 5.21529 6.96811 5.27533 7.19325L7.27533 14.6932C7.36288 15.0216 7.66022 15.25 8.00001 15.25H18C18.3398 15.25 18.6371 15.0216 18.7247 14.6932L20.7247 7.19325C20.7847 6.96811 20.7367 6.72785 20.5947 6.54307C20.4528 6.3583 20.233 6.25 20 6.25H6.00001Z" fill="#FFC44D"/>
<path fill-rule="evenodd" clip-rule="evenodd" d="M8.5 16.25C7.25736 16.25 6.25 17.2574 6.25 18.5C6.25 19.7426 7.25736 20.75 8.5 20.75C9.74264 20.75 10.75 19.7426 10.75 18.5C10.75 17.2574 9.74264 16.25 8.5 16.25Z" fill="#5D6874"/>
<path fill-rule="evenodd" clip-rule="evenodd" d="M17.5 16.25C16.2574 16.25 15.25 17.2574 15.25 18.5C15.25 19.7426 16.2574 20.75 17.5 20.75C18.7426 20.75 19.75 19.7426 19.75 18.5C19.75 17.2574 18.7426 16.25 17.5 16.25Z" fill="#5D6874"/>
</svg>
