<svg width="24" height="24" viewBox="0 0 24 24" fill="none" xmlns="http://www.w3.org/2000/svg">
<path fill-rule="evenodd" clip-rule="evenodd" d="M20.75 4.18066C23.2498 6.60548 23.4072 10.4526 21.2165 13.0569C21.1805 13.1234 21.1344 13.1846 21.0791 13.2382L12.5222 21.5383C12.2312 21.8205 11.7687 21.8205 11.4778 21.5383L2.92089 13.2382C2.86561 13.1846 2.81947 13.1234 2.7835 13.0569C0.592758 10.4526 0.750154 6.60548 3.25 4.18066C5.63668 1.86561 9.34702 1.63348 12 3.47929C14.653 1.63348 18.3633 1.86561 20.75 4.18066Z" fill="#EE4D4D"/>
<path fill-rule="evenodd" clip-rule="evenodd" d="M12.3046 6.81463C12.6831 6.98286 12.8536 7.42608 12.6854 7.80459L11.1541 11.25H14C14.2539 11.25 14.4905 11.3784 14.6289 11.5913C14.7672 11.8042 14.7885 12.0726 14.6854 12.3046L12.6854 16.8046C12.5171 17.1831 12.0739 17.3536 11.6954 17.1853C11.3169 17.0171 11.1464 16.5739 11.3146 16.1954L12.8459 12.75H10C9.74612 12.75 9.50948 12.6216 9.37113 12.4087C9.23279 12.1958 9.21153 11.9274 9.31464 11.6954L11.3146 7.19538C11.4829 6.81687 11.9261 6.6464 12.3046 6.81463Z" fill="#ECEFF1"/>
</svg>
